<svg width="210" height="69" viewBox="0 0 210 69" fill="none" xmlns="http://www.w3.org/2000/svg">
<path d="M10.8938 23.2437C10.8938 24.7312 11.55 25.7375 13.475 25.7375H18.2C20.0813 25.7375 20.7813 24.7312 20.7813 23.2437V2.375H29.8375V24.8187C29.8375 29.1937 26.775 33.0438 20.65 33.0438H10.9813C4.85625 33.0438 1.79375 29.1937 1.79375 24.8187V2.375H10.8938V23.2437ZM62.7662 2.375V33H55.5037C53.9725 33 53.535 32.7812 52.7037 31.5562L43.1662 17.6875H42.86V33H33.76V2.375H41.0662C42.9912 2.375 42.9475 2.55 43.4725 3.29375C43.8225 3.81875 51.8287 15.0625 53.4912 17.7312H53.71V2.375H62.7662ZM76.2289 2.375V33H67.1727V2.375H76.2289ZM80.5861 33V2.375H104.649V9.85625H89.6861V14.7125H101.761V22.2375H89.6861V33H80.5861ZM125.689 33L123.939 26.6125H113.701L111.951 33H102.151C102.151 33 110.683 5.91875 111.383 3.73125C111.776 2.41874 111.908 2.375 113.701 2.375H123.895C125.689 2.375 125.82 2.41874 126.258 3.73125C126.958 5.91875 135.445 33 135.445 33H125.689ZM118.295 9.24375L115.583 19.175H122.058L119.345 9.24375H118.295ZM148.966 24.1187L154.304 2.375H164.541C164.541 2.375 157.41 28.7562 156.623 31.6875C156.273 32.9562 155.791 33.1313 155.091 33.1313H142.316C141.616 33.1313 141.179 32.9562 140.829 31.6875C139.998 28.7562 132.866 2.375 132.866 2.375H143.104L148.441 24.1187H148.966ZM175.521 2.375V33H166.465V2.375H175.521ZM188.978 24.5125V33H179.878V2.375H198.297C204.422 2.375 207.484 6.05 207.484 10.4687V16.4187C207.484 20.7937 204.422 24.5125 198.297 24.5125H188.978ZM195.847 17.25C197.728 17.25 198.428 16.2437 198.428 14.7562V12.1312C198.428 10.6437 197.728 9.6375 195.847 9.6375H188.978V17.25H195.847Z" fill="white"/>
<path d="M22.2725 49.772L15.6575 50.0292C15.5105 51.8422 15.2533 54.4025 14.8858 57.71C14.5183 60.993 14.2733 63.2837 14.1508 64.5822C16.0618 63.8962 17.8135 62.9407 19.406 61.7157C20.1655 61.7402 20.6555 61.924 20.876 62.267C21.121 62.5855 21.2068 63.1367 21.1333 63.9207C20.1288 64.8027 18.8915 65.6235 17.4215 66.383C15.976 67.1425 14.4938 67.6815 12.9748 68C10.4268 67.706 8.871 66.6892 8.3075 64.9497C9.9245 59.4862 11.1495 54.721 11.9825 50.654L7.205 51.4992C6.3475 50.5192 6.3475 49.4045 7.205 48.155L12.2398 48.2285L11.909 42.275C14.604 40.7315 16.6253 40.5845 17.9728 41.834L16.172 47.567L22.2725 46.4277C23.13 47.1382 23.13 48.253 22.2725 49.772ZM35.4138 47.4567C37.8638 47.8487 39.5298 48.8655 40.4118 50.507C41.3183 52.124 41.4898 54.0595 40.9263 56.3135C36.8103 58.2735 32.8658 59.6332 29.0928 60.3927C29.4358 62.3772 30.5015 63.8472 32.29 64.8027C35.0095 64.1657 37.2635 63.149 39.052 61.7525C40.424 61.7035 40.9875 62.4752 40.7425 64.0677C39.9585 64.9252 38.6233 65.746 36.7368 66.53C34.8503 67.2895 33.1475 67.7795 31.6285 68C28.909 67.51 26.8878 66.4687 25.5648 64.8762C24.2663 63.2592 23.6415 61.3482 23.6905 59.1432C23.764 57.3057 24.401 55.505 25.6015 53.741C28.664 50.5315 31.9348 48.4367 35.4138 47.4567ZM28.9825 58.151V58.2612C31.6285 57.4772 34.0785 56.534 36.3325 55.4315C36.6265 53.055 35.9283 51.389 34.2378 50.4335L33.613 50.654C32.29 51.5605 31.1998 52.7242 30.3423 54.1452C29.4848 55.5662 29.0315 56.9015 28.9825 58.151ZM55.8738 47.6037C57.6868 47.9222 59.0465 48.5837 59.953 49.5882C60.884 50.5682 61.521 51.8667 61.864 53.4837C61.472 54.2922 60.786 54.8557 59.806 55.1742C58.8505 55.4682 57.748 55.4805 56.4985 55.211C56.523 54.133 56.4128 53.251 56.1678 52.565C55.9228 51.879 55.5063 51.193 54.9183 50.507L54.0363 50.6907C52.7133 51.6952 51.6598 52.8957 50.8758 54.2922C50.0918 55.6887 49.663 57.0852 49.5895 58.4817C49.5405 59.8782 49.7488 61.1032 50.2143 62.1567C50.7043 63.1857 51.5985 64.08 52.897 64.8395C55.69 64.0065 57.895 62.8917 59.512 61.4952C60.9085 61.4462 61.4353 62.218 61.0923 63.8105C60.2103 64.7415 58.8995 65.6112 57.16 66.4197C55.445 67.2282 53.7668 67.755 52.1253 68C49.3078 67.51 47.262 66.4687 45.988 64.8762C44.714 63.2592 44.0893 61.4707 44.1138 59.5107C44.1628 57.5507 44.8365 55.6642 46.135 53.8512C49.026 50.4457 52.2723 48.3632 55.8738 47.6037ZM84.3846 52.712L82.8043 56.7177C82.5103 60.1967 82.4491 63.786 82.6206 67.4855C81.7876 67.951 80.7586 68.098 79.5336 67.9265C78.3331 67.7305 77.3286 67.265 76.5201 66.53C76.8876 63.5655 77.7206 59.2902 79.0191 53.7042C78.8476 52.7487 78.3576 52.0872 77.5491 51.7197C75.5891 52.6017 73.5188 54.2555 71.3383 56.681C71.0198 59.915 70.5421 63.5165 69.9051 67.4855C68.8761 67.951 67.7123 68.0858 66.4138 67.8897C65.1153 67.6937 64.2701 67.2527 63.8781 66.5667C65.7891 61.1032 67.2836 54.9782 68.3616 48.1917L68.4351 38.894C69.7826 38.1345 70.9463 37.6812 71.9263 37.5342C72.9063 37.3872 73.8251 37.5097 74.6826 37.9017L72.4041 46.6115L72.1836 51.3522L70.7871 53.0795L71.1546 53.594C73.4331 51.0705 75.7728 49.135 78.1738 47.7875C79.9133 47.91 81.2853 48.4612 82.2898 49.4413C83.3188 50.3967 84.0171 51.487 84.3846 52.712Z" fill="#F2472A"/>
</svg>
